<svg version="1.1" xmlns="http://www.w3.org/2000/svg" viewBox="0 0 531 254" width="531" height="254">
  <!-- svg-source:excalidraw -->
  
  <defs>
    <style class="style-fonts">
      @font-face {
        font-family: "Virgil";
        src: url("https://excalidraw.com/Virgil.woff2");
      }
      @font-face {
        font-family: "Cascadia";
        src: url("https://excalidraw.com/Cascadia.woff2");
      }
    </style>
    
  </defs>
  <rect x="0" y="0" width="531" height="254" fill="#ffffff"></rect><g transform="translate(66.84637253868868 51.725014442518614) rotate(0 192.9990234375 20.69999999999999)"><text x="192.9990234375" y="0" font-family="Helvetica, Segoe UI Emoji" font-size="36px" fill="#000000" text-anchor="middle" style="white-space: pre;" direction="ltr" dominant-baseline="text-before-edge">COOK WITH ME CORP</text></g><g transform="translate(10 10) rotate(0 255.5 117)" stroke="none"><path fill="#000000" d="M 3.03,-0.75 Q 3.03,-0.75 4.40,5.00 5.77,10.77 7.49,19.02 9.22,27.28 10.81,38.92 12.40,50.56 14.22,67.29 16.03,84.02 17.94,103.20 19.86,122.39 22.10,141.15 24.34,159.91 27.01,176.75 29.67,193.60 32.21,204.40 34.76,215.19 37.63,219.80 40.50,224.41 43.77,224.68 47.04,224.96 51.94,219.38 56.84,213.80 63.05,202.95 69.26,192.09 74.48,178.92 79.70,165.75 83.35,152.45 87.00,139.16 88.53,127.02 90.07,114.88 90.15,106.35 90.23,97.81 89.42,92.61 88.61,87.40 87.79,85.38 86.98,83.35 85.91,82.37 84.85,81.38 84.78,80.96 84.72,80.54 84.76,80.12 84.80,79.70 84.94,79.29 85.08,78.89 85.31,78.54 85.54,78.18 85.85,77.89 86.16,77.60 86.53,77.39 86.90,77.18 87.31,77.07 87.72,76.95 88.15,76.94 88.57,76.93 88.99,77.02 89.40,77.11 89.78,77.30 90.17,77.48 90.49,77.76 90.82,78.03 91.07,78.37 91.32,78.72 91.48,79.11 91.64,79.50 90.41,81.98 89.17,84.46 89.03,87.80 88.89,91.14 89.21,98.71 89.52,106.28 91.89,117.41 94.27,128.55 98.65,139.78 103.03,151.01 107.65,158.21 112.26,165.42 116.42,168.80 120.57,172.19 124.22,172.20 127.88,172.21 130.82,169.42 133.76,166.62 136.14,160.60 138.52,154.57 140.18,147.14 141.84,139.71 142.86,133.66 143.87,127.61 144.15,124.12 144.44,120.63 144.54,120.29 144.64,119.95 144.82,119.64 145.00,119.33 145.25,119.08 145.50,118.82 145.80,118.63 146.10,118.44 146.44,118.33 146.77,118.22 147.13,118.19 147.48,118.17 147.84,118.23 148.19,118.28 148.51,118.43 148.84,118.57 149.12,118.78 149.41,119.00 149.63,119.27 149.86,119.55 150.01,119.87 150.16,120.19 150.23,120.54 150.30,120.89 150.28,121.25 150.27,121.60 154.39,125.89 158.51,130.18 164.65,136.99 170.79,143.80 180.67,150.59 190.56,157.37 202.93,162.23 215.29,167.08 225.64,169.44 235.99,171.79 242.73,171.94 249.48,172.10 251.97,171.41 254.45,170.72 248.47,166.38 242.48,162.03 229.58,157.98 216.68,153.94 197.67,149.58 178.65,145.22 156.83,141.92 135.00,138.63 113.71,136.93 92.41,135.23 77.43,135.65 62.45,136.07 53.42,138.22 44.39,140.36 40.27,142.50 36.16,144.63 36.58,147.97 37.01,151.30 41.97,153.29 46.93,155.28 58.17,157.48 69.41,159.69 88.50,160.67 107.60,161.65 135.23,160.66 162.86,159.67 195.85,156.68 228.85,153.69 265.29,149.26 301.73,144.84 337.61,139.24 373.48,133.63 402.83,128.95 432.18,124.27 452.39,120.57 472.60,116.86 483.45,114.44 494.30,112.01 498.86,110.71 503.42,109.41 505.03,108.60 506.64,107.80 507.02,107.74 507.39,107.68 507.77,107.71 508.15,107.74 508.51,107.86 508.87,107.98 509.19,108.19 509.51,108.39 509.77,108.67 510.04,108.94 510.22,109.27 510.41,109.60 510.52,109.97 510.62,110.33 510.64,110.71 510.65,111.09 510.57,111.46 510.50,111.84 510.33,112.18 510.17,112.52 509.93,112.81 509.69,113.11 509.38,113.34 509.08,113.56 508.73,113.71 508.38,113.86 507.22,114.99 506.06,116.12 505.66,116.40 505.27,116.67 504.81,116.80 504.35,116.94 503.87,116.92 503.39,116.90 502.94,116.72 502.49,116.55 502.13,116.24 501.76,115.94 501.51,115.53 501.25,115.12 501.15,114.65 501.04,114.19 501.08,113.71 501.13,113.23 501.33,112.80 501.52,112.36 501.85,112.01 502.18,111.65 502.60,111.43 503.02,111.20 503.49,111.11 503.96,111.03 504.44,111.10 504.91,111.18 505.34,111.40 505.76,111.62 506.10,111.96 506.43,112.31 506.64,112.74 506.84,113.17 506.90,113.65 506.96,114.12 506.86,114.59 506.76,115.06 506.52,115.48 506.27,115.89 505.91,116.20 505.55,116.52 505.11,116.70 504.66,116.88 504.18,116.91 503.71,116.94 503.24,116.82 502.78,116.70 502.38,116.43 501.98,116.17 501.69,115.79 501.39,115.41 501.23,114.96 501.08,114.50 501.07,114.03 501.07,113.55 501.21,113.09 501.36,112.63 501.65,112.25 501.93,111.86 501.93,111.86 501.93,111.87 504.29,109.83 506.64,107.80 507.02,107.74 507.39,107.68 507.77,107.71 508.15,107.74 508.51,107.86 508.87,107.98 509.19,108.19 509.51,108.39 509.77,108.67 510.03,108.94 510.22,109.27 510.41,109.60 510.52,109.97 510.62,110.33 510.64,110.71 510.65,111.09 510.57,111.46 510.50,111.84 510.33,112.18 510.17,112.52 509.93,112.81 509.69,113.11 509.38,113.34 509.08,113.56 508.73,113.71 508.38,113.86 506.63,114.18 504.88,114.50 500.17,115.85 495.46,117.20 484.51,119.66 473.56,122.12 453.30,125.86 433.03,129.59 403.68,134.29 374.32,139.00 338.36,144.65 302.40,150.30 265.88,154.78 229.36,159.25 196.22,162.32 163.07,165.38 135.19,166.46 107.31,167.54 87.79,166.62 68.26,165.71 56.29,163.45 44.32,161.19 37.95,158.10 31.58,155.00 30.39,151.27 29.20,147.53 31.22,143.94 33.23,140.34 38.17,137.74 43.11,135.13 52.69,132.88 62.27,130.63 77.56,130.18 92.84,129.73 114.34,131.40 135.84,133.07 157.88,136.33 179.92,139.60 199.19,143.93 218.45,148.25 232.03,152.46 245.61,156.66 252.25,160.95 258.90,165.24 258.92,168.70 258.95,172.17 254.28,174.80 249.60,177.43 242.20,177.26 234.80,177.09 224.05,174.65 213.29,172.20 200.35,167.10 187.42,162.00 177.00,154.83 166.58,147.67 160.12,140.60 153.66,133.53 150.78,129.17 147.91,124.81 146.17,122.72 144.44,120.63 144.54,120.29 144.64,119.95 144.82,119.64 145.00,119.33 145.25,119.08 145.50,118.82 145.80,118.63 146.10,118.44 146.44,118.33 146.77,118.22 147.13,118.19 147.48,118.17 147.84,118.23 148.19,118.28 148.51,118.43 148.84,118.57 149.12,118.78 149.41,119.00 149.63,119.27 149.86,119.55 150.01,119.87 150.16,120.19 150.23,120.54 150.30,120.89 150.28,121.25 150.27,121.60 149.69,125.04 149.11,128.49 148.08,134.68 147.05,140.88 145.26,148.75 143.47,156.62 140.44,163.57 137.41,170.52 133.03,173.93 128.65,177.33 123.20,177.03 117.75,176.74 112.66,172.64 107.57,168.54 102.61,160.84 97.65,153.15 93.03,141.49 88.41,129.83 85.84,118.22 83.27,106.62 82.77,98.57 82.27,90.52 83.56,85.95 84.85,81.38 84.78,80.96 84.72,80.54 84.76,80.12 84.80,79.70 84.94,79.29 85.08,78.89 85.31,78.54 85.54,78.18 85.85,77.89 86.16,77.60 86.53,77.39 86.90,77.18 87.31,77.07 87.72,76.96 88.15,76.94 88.57,76.93 88.99,77.02 89.40,77.11 89.78,77.30 90.16,77.48 90.49,77.76 90.82,78.03 91.07,78.37 91.32,78.71 91.48,79.11 91.64,79.50 92.27,80.47 92.90,81.44 93.35,84.02 93.81,86.61 94.65,92.23 95.49,97.86 95.39,106.70 95.29,115.54 93.68,128.04 92.08,140.55 88.34,154.12 84.60,167.69 79.22,181.21 73.83,194.72 67.25,206.07 60.68,217.42 54.43,223.50 48.19,229.58 42.82,228.87 37.45,228.17 33.53,222.34 29.61,216.52 27.00,205.48 24.38,194.44 21.68,177.49 18.98,160.55 16.70,141.74 14.43,122.93 12.48,103.78 10.53,84.63 8.68,67.98 6.82,51.34 5.19,39.91 3.57,28.49 1.77,20.35 -0.02,12.22 -1.52,6.49 -3.03,0.75 -3.07,0.38 -3.12,0.01 -3.08,-0.36 -3.03,-0.73 -2.90,-1.09 -2.77,-1.44 -2.55,-1.75 -2.34,-2.06 -2.06,-2.31 -1.78,-2.56 -1.45,-2.74 -1.11,-2.91 -0.75,-3.00 -0.38,-3.10 -0.01,-3.10 0.36,-3.10 0.73,-3.01 1.09,-2.92 1.43,-2.75 1.76,-2.57 2.04,-2.32 2.33,-2.07 2.54,-1.77 2.76,-1.46 2.89,-1.10 3.03,-0.75 3.03,-0.75 L 3.03,-0.75 Z"></path></g></svg>